<?xml version="1.0" encoding="utf-8"?>
<!-- Generator: Adobe Illustrator 25.2.1, SVG Export Plug-In . SVG Version: 6.00 Build 0)  -->
<svg version="1.1" id="Layer_1" xmlns="http://www.w3.org/2000/svg" xmlns:xlink="http://www.w3.org/1999/xlink" x="0px" y="0px"
	 viewBox="0 0 1257.4 1041.2" style="enable-background:new 0 0 1257.4 1041.2;" xml:space="preserve">
<style type="text/css">
	.st0{fill:#FFFFFF;}
</style>
<path class="st0" d="M202.2,447.8h-0.1 M201.4,447.9c-0.3,0-0.6-0.1-0.9-0.1C200.8,447.9,201.1,447.9,201.4,447.9L201.4,447.9z
	 M201.4,447.9c-0.3,0-0.6-0.1-0.9-0.1C200.8,447.9,201.1,447.9,201.4,447.9L201.4,447.9z"/>
<path id="shield" class="st0" d="M522.3,26.7c-23.3,5-228.1,31.8-253.6,44.5c-5.9,11.8-18.2,48.5-22.1,54.3
	c-16.5,3.5-83.2,16.2-87.4,18.7c-2.3,7.1-17.7,37.2-21.2,40.7c-14.1,3.5-80,15.7-88.2,21.6c-4.7,28.2-22.6,310.6,95,495.3
	c117.6,184.6,323.3,307.5,377.4,319.3h0.4c54.1-11.8,259.4-134.7,377-319.3c117.6-184.7,100.1-467.1,95.4-495.3
	c-8.2-5.9-74.1-18.1-88.2-21.6c-3.5-3.5-18.8-33.7-21.2-40.7c-4.2-2.4-70.9-15.1-87.3-18.7c-3.9-5.8-16.2-42.5-22.1-54.3
	C750.9,58.5,545.9,31.7,522.3,26.7z M522.3,98.8c20.2,4.3,195.4,27.7,217.1,38.6c5,10.1,15.3,41.3,18.7,46.2
	c14.1,3,71.5,13.6,75,15.7c2,6,14.8,32.2,17.8,35.2c12.1,3,68.4,13.2,75.5,18.2c4,24.1,19.1,265.4-81.4,423.2S569,938.9,522.7,949
	h-0.4C476,938.9,300.5,833.7,200,675.9s-85.4-399.1-81.4-423.2c7-5,63.4-15.2,75.5-18.2c3-3,15.8-29.2,17.8-35.2
	c3.6-2.1,60.6-12.7,74.6-15.7c3.3-5,14.1-36.2,19.1-46.2C327.4,126.5,502.4,103,522.3,98.8L522.3,98.8z"/>
<path id="b" class="st0" d="M554.5,175.9c-6.6,0.7-7.6,5.3-7.6,7.2c-1.4,225.9-0.7,465.5-2.5,697.5c1.5,7.3,13.2-3.9,19.9-7.6
	c85.7-47.1,352.9-305.9,199.3-398.6c117.6-76.9,96.7-150.3,44.5-190.4C700.3,201.2,577.3,180.6,563,176.8
	C559.4,175.8,556.7,175.7,554.5,175.9L554.5,175.9z M626.2,268.8c1.7-0.9,70.8,24.7,108.6,50.5c43.3,29.5,28.7,57.9,3.4,75.1
	c-13.7,9.3-98.6,70.3-112.8,73.8C625,456.3,624.9,323.7,626.2,268.8L626.2,268.8z M689.3,527c9.5,0.3,18.5,3.3,25,10.2
	c5.9,5.6,31.7,33.5-23.3,113.2c-20.5,36.2-63.5,81.5-68.3,86.1c-0.6,0.2-0.8-0.7-1.3-0.4c0.5-25.9-0.3-151.4,1.3-186.6
	C625.8,547.9,660.9,526.2,689.3,527L689.3,527z"/>
<path id="w" class="st0" d="M262.4,257.3c-7,3-67,41.2-73.1,47.2c-1.7,53.2,12.6,196.9,65.2,309c6.6,14.2,13.9,27.5,21.7,39.5
	c15,25.9,15.8,23.8,33.3-0.9c12.1-16.4,29.5-40.6,33.9-45.6c6,20.1,45,145.5,99.8,221.2c24.3,33.6,61.6,65.4,61.4,52.3
	c-1.5-128-5.2-682.1-1.1-704.6c-16.2-0.4-69.2,6.5-79.7,12c-0.9,20.3,7.3,400.2,2.3,443.4C389,540.3,376.3,301.6,383.6,203
	c-20.1,4-69.1,23.7-76.1,30.7c-9,18.1,3.3,216.5,16.1,283.1c-4.4,6.9-17,25.7-19,28.7C279.2,499.7,254.9,358.2,262.4,257.3z"/>
<g>
	<path class="st0" d="M1026.5,747.7V641.9h59.1v105.9h105.2v58.4h-105.2v105.2h-59.1V806.2H921.3v-58.4H1026.5z"/>
</g>
<path class="st0" d="M1218.1,898.1c6.2-16.3,13.4-32.4,18.2-49.2c-76.9,65.6-151.4,106.1-179.3,112.2h-0.4
	c-37.9-8.3-162.3-80.2-261.3-192.6c-2.1,4.2-4.4,8.3-6.9,12.2c-8.3,13.1-19.2,25.5-33.1,32.8c115.1,128.3,257.5,210.2,301.2,219.7
	h0.4c23.9-5.2,77.4-32.2,139.7-76.5C1203.6,937,1210.7,917.5,1218.1,898.1z"/>
<path class="st0" d="M1221,644.5c-7.3-19.4-14.5-38.9-21.5-58.5c-62.4-44.4-115.8-71.3-139.7-76.5h-0.4
	c-28.1,6.1-97,42.2-173.3,101.3c-0.6,6.8-2.6,13.5-6,19c-11.5,19.3-21.6,39.4-33,58.8c-4,6.8-8.3,13.4-12.8,19.8
	c0.6,5,0.2,10.1-1.4,15.1c-1.1,7.7-4.3,15.3-8.4,22.2c93.7-96,200.3-156.6,234.9-164.1h0.4c27.8,6.1,102.4,46.6,179.3,112.2
	C1234.5,677,1227.2,660.8,1221,644.5z"/>
</svg>
